<mxfile host="app.diagrams.net" agent="Mozilla/5.0 (X11; Linux x86_64) AppleWebKit/537.36 (KHTML, like Gecko) Chrome/128.0.0.0 Safari/537.36 Edg/128.0.0.0" version="24.8.6">
  <diagram id="C5RBs43oDa-KdzZeNtuy" name="Page-1">
    <mxGraphModel dx="2054" dy="1197" grid="0" gridSize="10" guides="1" tooltips="1" connect="1" arrows="1" fold="1" page="1" pageScale="1" pageWidth="827" pageHeight="1169" background="none" math="0" shadow="0">
      <root>
        <mxCell id="WIyWlLk6GJQsqaUBKTNV-0" />
        <mxCell id="WIyWlLk6GJQsqaUBKTNV-1" parent="WIyWlLk6GJQsqaUBKTNV-0" />
        <mxCell id="oP8cZvHyPMTMM-2jX6vl-14" style="edgeStyle=orthogonalEdgeStyle;rounded=0;orthogonalLoop=1;jettySize=auto;html=1;endArrow=block;endFill=0;endSize=10;" edge="1" parent="WIyWlLk6GJQsqaUBKTNV-1" source="lrS_yKkgcYv1pcPra3JB-19" target="oP8cZvHyPMTMM-2jX6vl-4">
          <mxGeometry relative="1" as="geometry" />
        </mxCell>
        <mxCell id="lrS_yKkgcYv1pcPra3JB-19" value="Particle" style="swimlane;fontStyle=1;align=center;verticalAlign=top;childLayout=stackLayout;horizontal=1;startSize=26;horizontalStack=0;resizeParent=1;resizeParentMax=0;resizeLast=0;collapsible=1;marginBottom=0;whiteSpace=wrap;html=1;rounded=1;strokeColor=#788AA3;fontColor=#46495D;fillColor=#B2C9AB;" parent="WIyWlLk6GJQsqaUBKTNV-1" vertex="1">
          <mxGeometry x="497" y="418" width="240" height="100" as="geometry">
            <mxRectangle x="294" y="127" width="67" height="29" as="alternateBounds" />
          </mxGeometry>
        </mxCell>
        <mxCell id="lrS_yKkgcYv1pcPra3JB-20" value="&lt;div&gt;&lt;span style=&quot;background-color: initial;&quot;&gt;- radius : float&lt;/span&gt;&lt;br&gt;&lt;/div&gt;" style="text;strokeColor=none;fillColor=none;align=left;verticalAlign=top;spacingLeft=4;spacingRight=4;overflow=hidden;rotatable=0;points=[[0,0.5],[1,0.5]];portConstraint=eastwest;whiteSpace=wrap;html=1;fontColor=#46495D;" parent="lrS_yKkgcYv1pcPra3JB-19" vertex="1">
          <mxGeometry y="26" width="240" height="29" as="geometry" />
        </mxCell>
        <mxCell id="lrS_yKkgcYv1pcPra3JB-21" value="" style="line;strokeWidth=1;fillColor=none;align=left;verticalAlign=middle;spacingTop=-1;spacingLeft=3;spacingRight=3;rotatable=0;labelPosition=right;points=[];portConstraint=eastwest;strokeColor=inherit;rounded=1;fontColor=#46495D;" parent="lrS_yKkgcYv1pcPra3JB-19" vertex="1">
          <mxGeometry y="55" width="240" height="8" as="geometry" />
        </mxCell>
        <mxCell id="lrS_yKkgcYv1pcPra3JB-22" value="&lt;div&gt;+ collides(Body*) : bool&lt;/div&gt;" style="text;strokeColor=none;fillColor=none;align=left;verticalAlign=top;spacingLeft=4;spacingRight=4;overflow=hidden;rotatable=0;points=[[0,0.5],[1,0.5]];portConstraint=eastwest;whiteSpace=wrap;html=1;fontColor=#46495D;" parent="lrS_yKkgcYv1pcPra3JB-19" vertex="1">
          <mxGeometry y="63" width="240" height="37" as="geometry" />
        </mxCell>
        <mxCell id="oP8cZvHyPMTMM-2jX6vl-4" value="Body" style="swimlane;fontStyle=1;align=center;verticalAlign=top;childLayout=stackLayout;horizontal=1;startSize=26;horizontalStack=0;resizeParent=1;resizeParentMax=0;resizeLast=0;collapsible=1;marginBottom=0;whiteSpace=wrap;html=1;rounded=1;strokeColor=#788AA3;fontColor=#46495D;fillColor=#B2C9AB;" vertex="1" parent="WIyWlLk6GJQsqaUBKTNV-1">
          <mxGeometry x="290" y="152" width="240" height="191" as="geometry">
            <mxRectangle x="294" y="127" width="67" height="29" as="alternateBounds" />
          </mxGeometry>
        </mxCell>
        <mxCell id="oP8cZvHyPMTMM-2jX6vl-5" value="&lt;div&gt;- position : Vector&lt;/div&gt;&lt;div&gt;- mass : float&lt;/div&gt;&lt;div&gt;- velocity : float&lt;/div&gt;" style="text;strokeColor=none;fillColor=none;align=left;verticalAlign=top;spacingLeft=4;spacingRight=4;overflow=hidden;rotatable=0;points=[[0,0.5],[1,0.5]];portConstraint=eastwest;whiteSpace=wrap;html=1;fontColor=#46495D;" vertex="1" parent="oP8cZvHyPMTMM-2jX6vl-4">
          <mxGeometry y="26" width="240" height="78" as="geometry" />
        </mxCell>
        <mxCell id="oP8cZvHyPMTMM-2jX6vl-6" value="" style="line;strokeWidth=1;fillColor=none;align=left;verticalAlign=middle;spacingTop=-1;spacingLeft=3;spacingRight=3;rotatable=0;labelPosition=right;points=[];portConstraint=eastwest;strokeColor=inherit;rounded=1;fontColor=#46495D;" vertex="1" parent="oP8cZvHyPMTMM-2jX6vl-4">
          <mxGeometry y="104" width="240" height="8" as="geometry" />
        </mxCell>
        <mxCell id="oP8cZvHyPMTMM-2jX6vl-7" value="&lt;div&gt;+ collides(Body*) : bool&lt;/div&gt;&lt;div&gt;+ handleCollision(Body*) : void&lt;/div&gt;+ update(std::vector forces) : void&lt;div&gt;+ render() : void&lt;/div&gt;" style="text;strokeColor=none;fillColor=none;align=left;verticalAlign=top;spacingLeft=4;spacingRight=4;overflow=hidden;rotatable=0;points=[[0,0.5],[1,0.5]];portConstraint=eastwest;whiteSpace=wrap;html=1;fontColor=#46495D;" vertex="1" parent="oP8cZvHyPMTMM-2jX6vl-4">
          <mxGeometry y="112" width="240" height="79" as="geometry" />
        </mxCell>
        <mxCell id="oP8cZvHyPMTMM-2jX6vl-13" style="edgeStyle=orthogonalEdgeStyle;rounded=0;orthogonalLoop=1;jettySize=auto;html=1;endArrow=block;endFill=0;endSize=10;" edge="1" parent="WIyWlLk6GJQsqaUBKTNV-1" source="oP8cZvHyPMTMM-2jX6vl-9" target="oP8cZvHyPMTMM-2jX6vl-4">
          <mxGeometry relative="1" as="geometry" />
        </mxCell>
        <mxCell id="oP8cZvHyPMTMM-2jX6vl-9" value="Surface" style="swimlane;fontStyle=1;align=center;verticalAlign=top;childLayout=stackLayout;horizontal=1;startSize=26;horizontalStack=0;resizeParent=1;resizeParentMax=0;resizeLast=0;collapsible=1;marginBottom=0;whiteSpace=wrap;html=1;rounded=1;strokeColor=#788AA3;fontColor=#46495D;fillColor=#B2C9AB;" vertex="1" parent="WIyWlLk6GJQsqaUBKTNV-1">
          <mxGeometry x="90" y="418" width="240" height="121" as="geometry">
            <mxRectangle x="294" y="127" width="67" height="29" as="alternateBounds" />
          </mxGeometry>
        </mxCell>
        <mxCell id="oP8cZvHyPMTMM-2jX6vl-10" value="&lt;div&gt;&lt;span style=&quot;background-color: initial;&quot;&gt;- width : float&lt;/span&gt;&lt;br&gt;&lt;/div&gt;&lt;div&gt;&lt;span style=&quot;background-color: initial;&quot;&gt;- height : float&lt;/span&gt;&lt;/div&gt;" style="text;strokeColor=none;fillColor=none;align=left;verticalAlign=top;spacingLeft=4;spacingRight=4;overflow=hidden;rotatable=0;points=[[0,0.5],[1,0.5]];portConstraint=eastwest;whiteSpace=wrap;html=1;fontColor=#46495D;" vertex="1" parent="oP8cZvHyPMTMM-2jX6vl-9">
          <mxGeometry y="26" width="240" height="45" as="geometry" />
        </mxCell>
        <mxCell id="oP8cZvHyPMTMM-2jX6vl-11" value="" style="line;strokeWidth=1;fillColor=none;align=left;verticalAlign=middle;spacingTop=-1;spacingLeft=3;spacingRight=3;rotatable=0;labelPosition=right;points=[];portConstraint=eastwest;strokeColor=inherit;rounded=1;fontColor=#46495D;" vertex="1" parent="oP8cZvHyPMTMM-2jX6vl-9">
          <mxGeometry y="71" width="240" height="8" as="geometry" />
        </mxCell>
        <mxCell id="oP8cZvHyPMTMM-2jX6vl-12" value="&lt;div&gt;+ collides(Body*) : bool&lt;/div&gt;" style="text;strokeColor=none;fillColor=none;align=left;verticalAlign=top;spacingLeft=4;spacingRight=4;overflow=hidden;rotatable=0;points=[[0,0.5],[1,0.5]];portConstraint=eastwest;whiteSpace=wrap;html=1;fontColor=#46495D;" vertex="1" parent="oP8cZvHyPMTMM-2jX6vl-9">
          <mxGeometry y="79" width="240" height="42" as="geometry" />
        </mxCell>
      </root>
    </mxGraphModel>
  </diagram>
</mxfile>
